<svg xmlns="http://www.w3.org/2000/svg" xmlns:xlink="http://www.w3.org/1999/xlink" width="400" zoomAndPan="magnify" viewBox="0 0 300 149.999998" height="200" preserveAspectRatio="xMidYMid meet" version="1.0"><defs><g/></defs><g fill="#000000" fill-opacity="1"><g transform="translate(106.706941, 129.002955)"><g><path d="M 1.148438 -4.011719 L 0.3125 -4.011719 L 0.3125 0 L 1.148438 0 Z M 1.148438 -4.011719 "/></g></g></g><g fill="#000000" fill-opacity="1"><g transform="translate(108.87318, 129.002955)"><g><path d="M 1.492188 -1.675781 C 2.074219 -1.601562 2.222656 -1.441406 2.222656 -1.152344 L 2.222656 -1.125 C 2.222656 -0.859375 2.03125 -0.652344 1.648438 -0.652344 L 1.601562 -0.652344 C 1.214844 -0.652344 1.007812 -0.863281 1.007812 -1.367188 L 0.175781 -1.367188 L 0.175781 -1.324219 C 0.175781 -0.355469 0.675781 0.0664062 1.621094 0.0664062 C 2.5625 0.0664062 3.070312 -0.378906 3.070312 -1.152344 L 3.070312 -1.203125 C 3.070312 -1.949219 2.628906 -2.25 1.753906 -2.367188 C 1.167969 -2.445312 1.050781 -2.597656 1.050781 -2.890625 L 1.050781 -2.917969 C 1.050781 -3.175781 1.246094 -3.359375 1.578125 -3.359375 L 1.625 -3.359375 C 2.046875 -3.359375 2.207031 -3.117188 2.207031 -2.59375 L 3.039062 -2.59375 L 3.039062 -2.703125 C 3.039062 -3.644531 2.609375 -4.082031 1.621094 -4.082031 C 0.703125 -4.082031 0.207031 -3.613281 0.207031 -2.886719 L 0.207031 -2.828125 C 0.207031 -2.105469 0.617188 -1.796875 1.492188 -1.675781 Z M 1.492188 -1.675781 "/></g></g></g><g fill="#000000" fill-opacity="1"><g transform="translate(112.830035, 129.002955)"><g><path d="M 3.226562 -4.011719 L 2.433594 -4.011719 L 2.433594 -2.332031 L 2.460938 -1.523438 L 1.167969 -4.011719 L 0.289062 -4.011719 L 0.289062 0 L 1.074219 0 L 1.074219 -1.683594 L 1.050781 -2.492188 L 2.347656 0 L 3.226562 0 Z M 3.226562 -4.011719 "/></g></g></g><g fill="#000000" fill-opacity="1"><g transform="translate(117.054452, 129.002955)"><g><path d="M 0.242188 -4.011719 L 0.371094 -2.351562 L 0.992188 -2.351562 L 1.121094 -4.011719 Z M 0.242188 -4.011719 "/></g></g></g><g fill="#000000" fill-opacity="1"><g transform="translate(119.128073, 129.002955)"><g><path d="M 1.847656 -3.292969 L 2.777344 -3.292969 L 2.777344 -4.011719 L 0.0859375 -4.011719 L 0.0859375 -3.292969 L 1.011719 -3.292969 L 1.011719 0 L 1.847656 0 Z M 1.847656 -3.292969 "/></g></g></g><g fill="#000000" fill-opacity="1"><g transform="translate(122.704166, 129.002955)"><g/></g></g><g fill="#000000" fill-opacity="1"><g transform="translate(124.443332, 129.002955)"><g><path d="M 2.289062 -4.011719 L 2.289062 -2.40625 L 1.121094 -2.40625 L 1.121094 -4.011719 L 0.289062 -4.011719 L 0.289062 0 L 1.121094 0 L 1.121094 -1.6875 L 2.289062 -1.6875 L 2.289062 0 L 3.125 0 L 3.125 -4.011719 Z M 2.289062 -4.011719 "/></g></g></g><g fill="#000000" fill-opacity="1"><g transform="translate(128.564838, 129.002955)"><g><path d="M 1.074219 -4.023438 L 0.0703125 0 L 0.96875 0 L 1.15625 -0.863281 L 2.140625 -0.863281 L 2.335938 0 L 3.226562 0 L 2.222656 -4.023438 Z M 1.648438 -3.0625 L 1.976562 -1.585938 L 1.316406 -1.585938 Z M 1.648438 -3.0625 "/></g></g></g><g fill="#000000" fill-opacity="1"><g transform="translate(132.573148, 129.002955)"><g><path d="M 1.121094 -1.441406 L 1.605469 -1.441406 C 2.257812 -1.441406 3 -1.605469 3 -2.675781 L 3 -2.777344 C 3 -3.84375 2.257812 -4.011719 1.605469 -4.011719 L 0.289062 -4.011719 L 0.289062 0 L 1.121094 0 Z M 1.121094 -2.160156 L 1.121094 -3.292969 L 1.640625 -3.292969 C 1.867188 -3.292969 2.15625 -3.207031 2.15625 -2.753906 L 2.15625 -2.703125 C 2.15625 -2.25 1.867188 -2.160156 1.640625 -2.160156 Z M 1.121094 -2.160156 "/></g></g></g><g fill="#000000" fill-opacity="1"><g transform="translate(136.4168, 129.002955)"><g><path d="M 1.121094 -1.441406 L 1.605469 -1.441406 C 2.257812 -1.441406 3 -1.605469 3 -2.675781 L 3 -2.777344 C 3 -3.84375 2.257812 -4.011719 1.605469 -4.011719 L 0.289062 -4.011719 L 0.289062 0 L 1.121094 0 Z M 1.121094 -2.160156 L 1.121094 -3.292969 L 1.640625 -3.292969 C 1.867188 -3.292969 2.15625 -3.207031 2.15625 -2.753906 L 2.15625 -2.703125 C 2.15625 -2.25 1.867188 -2.160156 1.640625 -2.160156 Z M 1.121094 -2.160156 "/></g></g></g><g fill="#000000" fill-opacity="1"><g transform="translate(140.260452, 129.002955)"><g><path d="M 2.027344 -1.230469 L 3.175781 -4.011719 L 2.265625 -4.011719 L 1.609375 -2.257812 L 0.953125 -4.011719 L 0.0429688 -4.011719 L 1.195312 -1.230469 L 1.195312 0 L 2.027344 0 Z M 2.027344 -1.230469 "/></g></g></g><g fill="#000000" fill-opacity="1"><g transform="translate(144.186436, 129.002955)"><g/></g></g><g fill="#000000" fill-opacity="1"><g transform="translate(145.925601, 129.002955)"><g><path d="M 2.289062 -4.011719 L 2.289062 -2.40625 L 1.121094 -2.40625 L 1.121094 -4.011719 L 0.289062 -4.011719 L 0.289062 0 L 1.121094 0 L 1.121094 -1.6875 L 2.289062 -1.6875 L 2.289062 0 L 3.125 0 L 3.125 -4.011719 Z M 2.289062 -4.011719 "/></g></g></g><g fill="#000000" fill-opacity="1"><g transform="translate(150.047107, 129.002955)"><g><path d="M 1.730469 0.0664062 C 2.773438 0.0664062 3.261719 -0.515625 3.261719 -1.902344 L 3.261719 -2.109375 C 3.261719 -3.5 2.773438 -4.082031 1.730469 -4.082031 C 0.691406 -4.082031 0.199219 -3.5 0.199219 -2.109375 L 0.199219 -1.902344 C 0.199219 -0.515625 0.691406 0.0664062 1.730469 0.0664062 Z M 1.707031 -0.652344 C 1.195312 -0.652344 1.042969 -1.101562 1.042969 -1.902344 L 1.042969 -2.109375 C 1.042969 -2.914062 1.195312 -3.359375 1.707031 -3.359375 L 1.753906 -3.359375 C 2.269531 -3.359375 2.414062 -2.914062 2.414062 -2.109375 L 2.414062 -1.902344 C 2.414062 -1.101562 2.269531 -0.652344 1.753906 -0.652344 Z M 1.707031 -0.652344 "/></g></g></g><g fill="#000000" fill-opacity="1"><g transform="translate(154.220068, 129.002955)"><g><path d="M 1.703125 0.0664062 C 2.792969 0.0664062 3.148438 -0.394531 3.148438 -1.269531 L 3.148438 -4.011719 L 2.316406 -4.011719 L 2.316406 -1.296875 C 2.316406 -0.871094 2.175781 -0.652344 1.703125 -0.652344 C 1.230469 -0.652344 1.097656 -0.871094 1.097656 -1.296875 L 1.097656 -4.011719 L 0.261719 -4.011719 L 0.261719 -1.269531 C 0.261719 -0.394531 0.613281 0.0664062 1.703125 0.0664062 Z M 1.703125 0.0664062 "/></g></g></g><g fill="#000000" fill-opacity="1"><g transform="translate(158.341573, 129.002955)"><g><path d="M 1.121094 -1.441406 L 1.546875 -1.441406 L 2.097656 0 L 3 0 L 2.367188 -1.558594 C 2.726562 -1.707031 3 -2.027344 3 -2.675781 L 3 -2.777344 C 3 -3.84375 2.257812 -4.011719 1.605469 -4.011719 L 0.289062 -4.011719 L 0.289062 0 L 1.121094 0 Z M 1.121094 -2.160156 L 1.121094 -3.292969 L 1.640625 -3.292969 C 1.867188 -3.292969 2.15625 -3.207031 2.15625 -2.753906 L 2.15625 -2.703125 C 2.15625 -2.25 1.867188 -2.160156 1.640625 -2.160156 Z M 1.121094 -2.160156 "/></g></g></g><g fill="#000000" fill-opacity="1"><g transform="translate(162.257265, 129.002955)"><g/></g></g><g fill="#000000" fill-opacity="1"><g transform="translate(163.99643, 129.002955)"><g><path d="M 1.074219 -4.023438 L 0.0703125 0 L 0.96875 0 L 1.15625 -0.863281 L 2.140625 -0.863281 L 2.335938 0 L 3.226562 0 L 2.222656 -4.023438 Z M 1.648438 -3.0625 L 1.976562 -1.585938 L 1.316406 -1.585938 Z M 1.648438 -3.0625 "/></g></g></g><g fill="#000000" fill-opacity="1"><g transform="translate(168.00474, 129.002955)"><g><path d="M 3.226562 -4.011719 L 2.433594 -4.011719 L 2.433594 -2.332031 L 2.460938 -1.523438 L 1.167969 -4.011719 L 0.289062 -4.011719 L 0.289062 0 L 1.074219 0 L 1.074219 -1.683594 L 1.050781 -2.492188 L 2.347656 0 L 3.226562 0 Z M 3.226562 -4.011719 "/></g></g></g><g fill="#000000" fill-opacity="1"><g transform="translate(172.229159, 129.002955)"><g><path d="M 2.027344 -1.230469 L 3.175781 -4.011719 L 2.265625 -4.011719 L 1.609375 -2.257812 L 0.953125 -4.011719 L 0.0429688 -4.011719 L 1.195312 -1.230469 L 1.195312 0 L 2.027344 0 Z M 2.027344 -1.230469 "/></g></g></g><g fill="#000000" fill-opacity="1"><g transform="translate(176.155148, 129.002955)"><g><path d="M 1.847656 -3.292969 L 2.777344 -3.292969 L 2.777344 -4.011719 L 0.0859375 -4.011719 L 0.0859375 -3.292969 L 1.011719 -3.292969 L 1.011719 0 L 1.847656 0 Z M 1.847656 -3.292969 "/></g></g></g><g fill="#000000" fill-opacity="1"><g transform="translate(179.731242, 129.002955)"><g><path d="M 1.148438 -4.011719 L 0.3125 -4.011719 L 0.3125 0 L 1.148438 0 Z M 1.148438 -4.011719 "/></g></g></g><g fill="#000000" fill-opacity="1"><g transform="translate(181.897483, 129.002955)"><g><path d="M 3.375 -2.566406 L 3.355469 -1.765625 L 3.355469 0 L 4.1875 0 L 4.1875 -4.011719 L 2.953125 -4.011719 L 2.238281 -1.445312 L 1.519531 -4.011719 L 0.289062 -4.011719 L 0.289062 0 L 1.121094 0 L 1.121094 -1.765625 L 1.097656 -2.566406 L 1.8125 0 L 2.660156 0 Z M 3.375 -2.566406 "/></g></g></g><g fill="#000000" fill-opacity="1"><g transform="translate(187.078959, 129.002955)"><g><path d="M 0.289062 -4.011719 L 0.289062 0 L 2.742188 0 L 2.742188 -0.71875 L 1.121094 -0.71875 L 1.121094 -1.6875 L 2.484375 -1.6875 L 2.484375 -2.40625 L 1.121094 -2.40625 L 1.121094 -3.292969 L 2.742188 -3.292969 L 2.742188 -4.011719 Z M 0.289062 -4.011719 "/></g></g></g><g fill="#000000" fill-opacity="1"><g transform="translate(190.737379, 129.002955)"><g><path d="M 1.300781 -3.363281 C 1.558594 -3.363281 1.648438 -3.222656 1.648438 -2.980469 C 1.648438 -2.519531 0.902344 -2.144531 0.972656 -1.171875 L 1.542969 -1.171875 C 1.617188 -2.144531 2.464844 -2.011719 2.464844 -3.046875 C 2.464844 -3.5625 2.207031 -4.082031 1.300781 -4.082031 C 0.410156 -4.082031 0.109375 -3.605469 0.109375 -2.746094 L 0.109375 -2.65625 L 0.925781 -2.65625 C 0.925781 -3.160156 1.019531 -3.363281 1.300781 -3.363281 Z M 1.6875 -0.859375 L 0.832031 -0.859375 L 0.832031 0 L 1.6875 0 Z M 1.6875 -0.859375 "/></g></g></g><g fill="#000000" fill-opacity="0.1882"><g transform="translate(19.857803, 89.621583)"><g><path d="M 61.8125 -37.265625 C 61.550781 -38.949219 60.867188 -40 59.765625 -40.367188 C 58.554688 -40.839844 57.03125 -40.261719 55.242188 -38.632812 C 54.824219 -38.214844 54.769531 -37.582031 55.136719 -37.160156 C 55.507812 -36.742188 56.136719 -36.742188 56.558594 -37.109375 C 58.292969 -38.632812 58.976562 -38.527344 59.132812 -38.476562 C 59.449219 -38.371094 59.710938 -37.792969 59.867188 -36.898438 C 61.289062 -28.4375 51.089844 2.3125 38.738281 12.140625 C 37.53125 13.140625 35.796875 14.191406 34.640625 13.613281 C 31.589844 12.089844 31.746094 1.105469 31.851562 -6.203125 C 31.957031 -14.507812 31.90625 -18.1875 29.90625 -18.710938 C 28.648438 -19.082031 27.386719 -17.925781 25.492188 -14.613281 C 18.398438 -1.945312 12.667969 7.570312 8.515625 13.71875 C 4.152344 20.183594 2.417969 21.601562 1.839844 21.867188 C 1.472656 20.550781 1.734375 12.824219 18.503906 -30.90625 C 22.550781 -41.417969 24.96875 -45.835938 26.070312 -47.203125 C 26.125 -46.675781 26.125 -45.835938 26.070312 -44.363281 C 26.019531 -43.835938 26.4375 -43.363281 26.964844 -43.3125 C 27.542969 -43.257812 28.015625 -43.679688 28.070312 -44.257812 C 28.277344 -47.203125 28.121094 -49.25 26.648438 -49.566406 C 25.652344 -49.828125 23.757812 -50.25 16.609375 -31.589844 C 12.824219 -21.707031 7.515625 -7.570312 3.941406 3.679688 C -1.578125 20.972656 -0.578125 23.128906 0.894531 23.8125 C 1.15625 23.917969 1.367188 24.019531 1.628906 24.019531 C 3.046875 24.019531 5.097656 22.234375 9.460938 15.925781 C 13.71875 9.777344 19.710938 -0.15625 27.28125 -13.613281 C 28.382812 -15.609375 29.066406 -16.347656 29.382812 -16.609375 C 29.960938 -15.296875 29.855469 -10.09375 29.804688 -6.203125 C 29.644531 4.886719 29.855469 13.507812 33.746094 15.402344 C 35.425781 16.242188 37.53125 15.664062 40 13.71875 C 53.089844 3.3125 63.390625 -28.226562 61.8125 -37.265625 Z M 61.8125 -37.265625 "/></g></g></g><g fill="#000000" fill-opacity="0.1882"><g transform="translate(80.769051, 89.621583)"><g><path d="M 15.347656 -11.933594 C 14.875 -12.246094 14.296875 -12.089844 13.980469 -11.617188 C 10.460938 -5.941406 4.574219 -0.578125 2.785156 -1.3125 C 2.574219 -1.417969 0.894531 -2.417969 3.207031 -11.300781 C 3.3125 -11.878906 2.996094 -12.40625 2.46875 -12.5625 C 1.890625 -12.667969 1.367188 -12.351562 1.207031 -11.828125 C -0.683594 -4.414062 -0.421875 -0.472656 1.945312 0.527344 C 2.3125 0.683594 2.679688 0.734375 3.046875 0.734375 C 6.992188 0.734375 13.035156 -6.308594 15.714844 -10.566406 C 15.980469 -11.039062 15.820312 -11.667969 15.347656 -11.933594 Z M 2.945312 -16.1875 C 5.625 -16.03125 5.570312 -19.394531 3.417969 -18.660156 C 2.3125 -18.34375 0.894531 -16.292969 2.945312 -16.1875 Z M 2.945312 -16.1875 "/></g></g></g><g fill="#000000" fill-opacity="0.1882"><g transform="translate(94.065468, 89.621583)"><g><path d="M 21.128906 -11.722656 C 20.65625 -11.984375 20.027344 -11.828125 19.761719 -11.300781 C 18.503906 -9.144531 15.191406 -3.3125 13.296875 -3.523438 C 12.929688 -3.574219 11.878906 -4.101562 10.828125 -7.777344 C 10.09375 -10.355469 9.09375 -12.773438 7.148438 -12.878906 C 5.730469 -12.984375 4.152344 -11.878906 1.734375 -7.359375 C 2.367188 -9.617188 3.046875 -11.878906 3.574219 -13.71875 C 3.785156 -14.402344 3.941406 -14.980469 4.101562 -15.558594 C 4.257812 -16.085938 3.941406 -16.664062 3.417969 -16.820312 C 2.890625 -16.976562 2.3125 -16.664062 2.15625 -16.085938 C 1.996094 -15.558594 1.839844 -14.929688 1.628906 -14.296875 C 0.261719 -9.617188 -1.789062 -2.523438 -2.3125 1.789062 C -2.367188 2.261719 -2.050781 2.734375 -1.578125 2.839844 C -1.472656 2.890625 -1.417969 2.890625 -1.3125 2.890625 C -0.894531 2.890625 -0.527344 2.628906 -0.367188 2.261719 C 4.574219 -10.039062 6.570312 -10.878906 7.042969 -10.878906 C 7.148438 -10.878906 7.882812 -10.671875 8.882812 -7.199219 C 9.933594 -3.574219 11.300781 -1.734375 13.089844 -1.523438 C 15.769531 -1.207031 18.1875 -4.519531 21.5 -10.300781 C 21.8125 -10.828125 21.601562 -11.40625 21.128906 -11.722656 Z M 21.128906 -11.722656 "/></g></g></g><g fill="#000000" fill-opacity="0.1882"><g transform="translate(112.827603, 89.621583)"><g><path d="M 17.765625 -11.722656 C 17.292969 -12.035156 16.664062 -11.933594 16.347656 -11.457031 C 12.40625 -5.941406 9.199219 -2.46875 6.042969 -0.210938 C 4.46875 0.894531 2.945312 1.105469 1.945312 0.367188 C 1.3125 -0.105469 -0.628906 -2.207031 1.628906 -9.566406 C 6.726562 -13.769531 9.515625 -17.765625 8.777344 -19.867188 C 8.515625 -20.5 7.882812 -20.921875 7.199219 -20.921875 C 5.097656 -20.867188 1.890625 -17.242188 -0.210938 -10.460938 C -2.785156 -2.101562 -0.683594 0.945312 0.789062 1.996094 C 1.523438 2.574219 2.367188 2.839844 3.3125 2.839844 C 4.519531 2.839844 5.886719 2.367188 7.199219 1.417969 C 10.566406 -1 13.875 -4.574219 17.976562 -10.300781 C 18.292969 -10.773438 18.1875 -11.40625 17.765625 -11.722656 Z M 6.78125 -18.710938 C 6.570312 -17.871094 5.675781 -16.1875 3.207031 -13.667969 C 4.574219 -16.714844 6.042969 -18.1875 6.78125 -18.710938 Z M 6.78125 -18.710938 "/></g></g></g><g fill="#000000" fill-opacity="0.1882"><g transform="translate(128.121112, 89.621583)"><g/></g></g><g fill="#000000" fill-opacity="0.1882"><g transform="translate(144.255499, 89.621583)"><g><path d="M 15.558594 -9.777344 C 15.347656 -10.195312 14.929688 -10.40625 14.507812 -10.355469 C 14.140625 -10.355469 12.246094 -10.355469 10.566406 -10.355469 C 6.832031 -10.355469 4.101562 -10.355469 3.523438 -10.300781 C 2.945312 -10.25 2.523438 -9.722656 2.628906 -9.199219 C 2.679688 -8.671875 3.101562 -8.304688 3.625 -8.304688 C 3.625 -8.304688 3.679688 -8.304688 3.730469 -8.304688 C 4.257812 -8.359375 8.042969 -8.359375 10.566406 -8.304688 C 14.824219 -8.304688 14.824219 -8.304688 15.085938 -8.460938 C 15.609375 -8.671875 15.820312 -9.304688 15.558594 -9.777344 Z M 15.558594 -9.777344 "/></g></g></g><g fill="#000000" fill-opacity="0.1882"><g transform="translate(162.59719, 89.621583)"><g/></g></g><g fill="#000000" fill-opacity="0.1882"><g transform="translate(178.731577, 89.621583)"><g><path d="M 52.035156 12.667969 C 51.511719 12.40625 50.933594 12.613281 50.671875 13.140625 C 50.511719 13.457031 50.355469 13.769531 50.199219 14.035156 C 50.25 10.828125 51.300781 3.46875 52.246094 -2.628906 C 53.667969 -12.511719 55.296875 -23.707031 55.136719 -30.222656 C 54.980469 -36.847656 52.617188 -38.527344 50.671875 -38.792969 C 42.890625 -39.789062 28.121094 -17.871094 16.292969 19.710938 C 19.867188 1.628906 27.492188 -32.324219 29.960938 -42.46875 C 31.222656 -47.882812 30.960938 -51.089844 29.066406 -52.300781 C 27.386719 -53.351562 24.863281 -52.617188 21.5 -49.988281 C 16.558594 -46.148438 10.460938 -38.792969 5.992188 -31.273438 C 2.945312 -26.125 -1.839844 -16.503906 0.261719 -10.25 C 1.734375 -5.78125 6.148438 -4.785156 9.617188 -4.730469 C 10.195312 -4.730469 10.617188 -5.152344 10.671875 -5.730469 C 10.671875 -6.253906 10.195312 -6.726562 9.671875 -6.726562 C 5.519531 -6.832031 3.101562 -8.148438 2.15625 -10.878906 C -0.789062 -19.710938 12.824219 -40.683594 22.757812 -48.410156 C 25.597656 -50.617188 27.332031 -50.984375 27.964844 -50.566406 C 28.332031 -50.355469 29.433594 -49.09375 27.964844 -42.945312 C 26.703125 -37.738281 22.496094 -19.238281 18.871094 -2.417969 C 16.714844 7.410156 15.085938 15.191406 13.980469 20.867188 C 13.351562 24.125 12.929688 26.648438 12.667969 28.382812 C 12.246094 30.960938 12.140625 32.117188 13.191406 32.429688 C 13.296875 32.484375 13.457031 32.484375 13.5625 32.484375 C 14.402344 32.484375 14.824219 31.328125 15.296875 30.171875 C 15.296875 30.117188 15.296875 30.117188 15.296875 30.066406 C 22.550781 4.363281 30.171875 -11.667969 35.375 -20.605469 C 42.523438 -33.0625 47.9375 -37.109375 50.40625 -36.792969 C 52.667969 -36.53125 53.089844 -32.535156 53.140625 -30.171875 C 53.296875 -23.8125 51.667969 -12.71875 50.199219 -2.945312 C 47.78125 13.929688 47.621094 16.558594 49.304688 17.082031 C 50.511719 17.449219 51.355469 16.242188 52.457031 14.035156 C 52.71875 13.5625 52.511719 12.929688 52.035156 12.667969 Z M 52.035156 12.667969 "/></g></g></g><g fill="#000000" fill-opacity="0.1882"><g transform="translate(237.540635, 89.621583)"><g><path d="M 19.027344 -11.40625 C 18.554688 -11.773438 17.925781 -11.667969 17.609375 -11.25 C 15.402344 -8.410156 11.773438 -6.042969 8.988281 -6.570312 C 9.039062 -6.9375 9.09375 -7.304688 9.09375 -7.675781 C 9.460938 -13.613281 7.621094 -14.824219 6.519531 -15.03125 C 5.257812 -15.296875 3.941406 -14.351562 3.3125 -12.773438 C 3.046875 -12.878906 2.734375 -12.878906 2.46875 -12.667969 C 0.367188 -11.355469 -1.367188 -7.988281 -0.421875 -4.363281 C 0.210938 -2.207031 1.683594 -0.839844 3.625 -0.839844 C 5.464844 -0.839844 7.410156 -2.207031 8.410156 -4.625 C 12.089844 -3.835938 16.503906 -6.570312 19.183594 -9.988281 C 19.554688 -10.460938 19.449219 -11.089844 19.027344 -11.40625 Z M 3.679688 -2.839844 C 3.625 -2.839844 3.625 -2.839844 3.625 -2.839844 C 2.3125 -2.890625 1.734375 -4.152344 1.578125 -4.886719 C 1.050781 -6.675781 1.472656 -9.144531 2.945312 -10.511719 C 3.046875 -8.726562 4.046875 -6.78125 6.570312 -5.414062 C 5.835938 -3.730469 4.574219 -2.839844 3.679688 -2.839844 Z M 7.097656 -7.777344 C 7.042969 -7.675781 7.042969 -7.570312 7.042969 -7.464844 C 5.046875 -8.777344 4.730469 -10.460938 5.097656 -11.773438 C 5.363281 -12.613281 5.886719 -13.035156 6.148438 -13.035156 C 6.414062 -12.984375 7.304688 -11.984375 7.097656 -7.777344 Z M 7.097656 -7.777344 "/></g></g></g><g fill="#000000" fill-opacity="0.1882"><g transform="translate(254.358227, 89.621583)"><g><path d="M 44.363281 -31.011719 C 43.679688 -31.957031 40.632812 -32.535156 7.988281 -31.800781 C 9.039062 -36.058594 9.988281 -39.894531 10.828125 -42.996094 C 10.984375 -43.574219 10.671875 -44.101562 10.144531 -44.257812 C 9.617188 -44.414062 9.039062 -44.101562 8.882812 -43.574219 C 7.988281 -40.261719 6.992188 -36.269531 5.886719 -31.746094 C 2.996094 -31.695312 -0.15625 -31.644531 -3.574219 -31.539062 C -8.253906 -31.433594 -11.933594 -31.328125 -13.351562 -31.328125 C -13.929688 -31.328125 -14.402344 -30.855469 -14.402344 -30.328125 C -14.402344 -29.75 -13.929688 -29.277344 -13.351562 -29.277344 C -11.878906 -29.328125 -8.199219 -29.382812 -3.523438 -29.539062 C -1.050781 -29.59375 1.996094 -29.644531 5.414062 -29.75 C 3.152344 -20.183594 0.578125 -8.726562 -1.734375 2.46875 C -3.417969 10.671875 -4.785156 17.765625 -5.675781 22.96875 C -6.148438 25.703125 -6.464844 27.859375 -6.621094 29.328125 C -6.832031 31.328125 -6.9375 32.484375 -5.941406 32.851562 C -5.78125 32.851562 -5.675781 32.902344 -5.519531 32.902344 C -4.625 32.902344 -4.152344 31.644531 -3.730469 30.488281 C -3.523438 29.960938 -3.785156 29.382812 -4.308594 29.171875 C -4.414062 29.171875 -4.46875 29.121094 -4.574219 29.121094 C -4.046875 25.019531 -2.46875 15.820312 0.578125 1.3125 C 2.839844 -9.671875 5.308594 -20.65625 7.515625 -29.804688 C 21.972656 -30.117188 40.734375 -30.382812 42.890625 -29.644531 C 43.257812 -29.328125 43.730469 -29.328125 44.152344 -29.59375 C 44.574219 -29.90625 44.679688 -30.539062 44.363281 -31.011719 Z M 44.363281 -31.011719 "/></g></g></g><g fill="#000000" fill-opacity="0.1882"><g transform="translate(261.348056, 89.621583)"><g><path d="M 12.5625 -27.28125 C 10.828125 -28.277344 8.199219 -26.859375 4.203125 -22.707031 C 3.785156 -22.339844 3.785156 -21.65625 4.203125 -21.289062 C 4.625 -20.921875 5.257812 -20.921875 5.625 -21.289062 C 10.25 -26.070312 11.511719 -25.546875 11.511719 -25.546875 C 11.667969 -25.441406 12.195312 -24.335938 11.144531 -20.972656 C 10.039062 -17.242188 7.621094 -12.300781 5.519531 -7.9375 C 3.152344 -3.101562 1.839844 -0.261719 1.734375 1.207031 C 1.683594 1.789062 2.101562 2.261719 2.679688 2.3125 C 2.679688 2.3125 2.734375 2.3125 2.734375 2.3125 C 3.257812 2.3125 3.730469 1.890625 3.730469 1.367188 C 3.835938 0.210938 5.625 -3.46875 7.359375 -7.097656 C 9.515625 -11.511719 11.933594 -16.503906 13.089844 -20.394531 C 13.875 -22.917969 14.402344 -26.175781 12.5625 -27.28125 Z M 1.472656 4.992188 C 0.472656 5.308594 -0.105469 6.9375 1.207031 7.042969 C 3.523438 7.199219 3.3125 4.363281 1.472656 4.992188 Z M 1.472656 4.992188 "/></g></g></g><g fill="#000000" fill-opacity="1"><g transform="translate(21.000196, 89.315478)"><g><path d="M 61.8125 -37.265625 C 61.550781 -38.949219 60.867188 -40 59.765625 -40.367188 C 58.554688 -40.839844 57.03125 -40.261719 55.242188 -38.632812 C 54.824219 -38.214844 54.769531 -37.582031 55.136719 -37.160156 C 55.507812 -36.742188 56.136719 -36.742188 56.558594 -37.109375 C 58.292969 -38.632812 58.976562 -38.527344 59.132812 -38.476562 C 59.449219 -38.371094 59.710938 -37.792969 59.867188 -36.898438 C 61.289062 -28.4375 51.089844 2.3125 38.738281 12.140625 C 37.53125 13.140625 35.796875 14.191406 34.640625 13.613281 C 31.589844 12.089844 31.746094 1.105469 31.851562 -6.203125 C 31.957031 -14.507812 31.90625 -18.1875 29.90625 -18.710938 C 28.648438 -19.082031 27.386719 -17.925781 25.492188 -14.613281 C 18.398438 -1.945312 12.667969 7.570312 8.515625 13.71875 C 4.152344 20.183594 2.417969 21.601562 1.839844 21.867188 C 1.472656 20.550781 1.734375 12.824219 18.503906 -30.90625 C 22.550781 -41.417969 24.96875 -45.835938 26.070312 -47.203125 C 26.125 -46.675781 26.125 -45.835938 26.070312 -44.363281 C 26.019531 -43.835938 26.4375 -43.363281 26.964844 -43.3125 C 27.542969 -43.257812 28.015625 -43.679688 28.070312 -44.257812 C 28.277344 -47.203125 28.121094 -49.25 26.648438 -49.566406 C 25.652344 -49.828125 23.757812 -50.25 16.609375 -31.589844 C 12.824219 -21.707031 7.515625 -7.570312 3.941406 3.679688 C -1.578125 20.972656 -0.578125 23.128906 0.894531 23.8125 C 1.15625 23.917969 1.367188 24.019531 1.628906 24.019531 C 3.046875 24.019531 5.097656 22.234375 9.460938 15.925781 C 13.71875 9.777344 19.710938 -0.15625 27.28125 -13.613281 C 28.382812 -15.609375 29.066406 -16.347656 29.382812 -16.609375 C 29.960938 -15.296875 29.855469 -10.09375 29.804688 -6.203125 C 29.644531 4.886719 29.855469 13.507812 33.746094 15.402344 C 35.425781 16.242188 37.53125 15.664062 40 13.71875 C 53.089844 3.3125 63.390625 -28.226562 61.8125 -37.265625 Z M 61.8125 -37.265625 "/></g></g></g><g fill="#000000" fill-opacity="1"><g transform="translate(81.911444, 89.315478)"><g><path d="M 15.347656 -11.933594 C 14.875 -12.246094 14.296875 -12.089844 13.980469 -11.617188 C 10.460938 -5.941406 4.574219 -0.578125 2.785156 -1.3125 C 2.574219 -1.417969 0.894531 -2.417969 3.207031 -11.300781 C 3.3125 -11.878906 2.996094 -12.40625 2.46875 -12.5625 C 1.890625 -12.667969 1.367188 -12.351562 1.207031 -11.828125 C -0.683594 -4.414062 -0.421875 -0.472656 1.945312 0.527344 C 2.3125 0.683594 2.679688 0.734375 3.046875 0.734375 C 6.992188 0.734375 13.035156 -6.308594 15.714844 -10.566406 C 15.980469 -11.039062 15.820312 -11.667969 15.347656 -11.933594 Z M 2.945312 -16.1875 C 5.625 -16.03125 5.570312 -19.394531 3.417969 -18.660156 C 2.3125 -18.34375 0.894531 -16.292969 2.945312 -16.1875 Z M 2.945312 -16.1875 "/></g></g></g><g fill="#000000" fill-opacity="1"><g transform="translate(95.207861, 89.315478)"><g><path d="M 21.128906 -11.722656 C 20.65625 -11.984375 20.027344 -11.828125 19.761719 -11.300781 C 18.503906 -9.144531 15.191406 -3.3125 13.296875 -3.523438 C 12.929688 -3.574219 11.878906 -4.101562 10.828125 -7.777344 C 10.09375 -10.355469 9.09375 -12.773438 7.148438 -12.878906 C 5.730469 -12.984375 4.152344 -11.878906 1.734375 -7.359375 C 2.367188 -9.617188 3.046875 -11.878906 3.574219 -13.71875 C 3.785156 -14.402344 3.941406 -14.980469 4.101562 -15.558594 C 4.257812 -16.085938 3.941406 -16.664062 3.417969 -16.820312 C 2.890625 -16.976562 2.3125 -16.664062 2.15625 -16.085938 C 1.996094 -15.558594 1.839844 -14.929688 1.628906 -14.296875 C 0.261719 -9.617188 -1.789062 -2.523438 -2.3125 1.789062 C -2.367188 2.261719 -2.050781 2.734375 -1.578125 2.839844 C -1.472656 2.890625 -1.417969 2.890625 -1.3125 2.890625 C -0.894531 2.890625 -0.527344 2.628906 -0.367188 2.261719 C 4.574219 -10.039062 6.570312 -10.878906 7.042969 -10.878906 C 7.148438 -10.878906 7.882812 -10.671875 8.882812 -7.199219 C 9.933594 -3.574219 11.300781 -1.734375 13.089844 -1.523438 C 15.769531 -1.207031 18.1875 -4.519531 21.5 -10.300781 C 21.8125 -10.828125 21.601562 -11.40625 21.128906 -11.722656 Z M 21.128906 -11.722656 "/></g></g></g><g fill="#000000" fill-opacity="1"><g transform="translate(113.969996, 89.315478)"><g><path d="M 17.765625 -11.722656 C 17.292969 -12.035156 16.664062 -11.933594 16.347656 -11.457031 C 12.40625 -5.941406 9.199219 -2.46875 6.042969 -0.210938 C 4.46875 0.894531 2.945312 1.105469 1.945312 0.367188 C 1.3125 -0.105469 -0.628906 -2.207031 1.628906 -9.566406 C 6.726562 -13.769531 9.515625 -17.765625 8.777344 -19.867188 C 8.515625 -20.5 7.882812 -20.921875 7.199219 -20.921875 C 5.097656 -20.867188 1.890625 -17.242188 -0.210938 -10.460938 C -2.785156 -2.101562 -0.683594 0.945312 0.789062 1.996094 C 1.523438 2.574219 2.367188 2.839844 3.3125 2.839844 C 4.519531 2.839844 5.886719 2.367188 7.199219 1.417969 C 10.566406 -1 13.875 -4.574219 17.976562 -10.300781 C 18.292969 -10.773438 18.1875 -11.40625 17.765625 -11.722656 Z M 6.78125 -18.710938 C 6.570312 -17.871094 5.675781 -16.1875 3.207031 -13.667969 C 4.574219 -16.714844 6.042969 -18.1875 6.78125 -18.710938 Z M 6.78125 -18.710938 "/></g></g></g><g fill="#000000" fill-opacity="1"><g transform="translate(129.263505, 89.315478)"><g/></g></g><g fill="#000000" fill-opacity="1"><g transform="translate(145.397892, 89.315478)"><g><path d="M 15.558594 -9.777344 C 15.347656 -10.195312 14.929688 -10.40625 14.507812 -10.355469 C 14.140625 -10.355469 12.246094 -10.355469 10.566406 -10.355469 C 6.832031 -10.355469 4.101562 -10.355469 3.523438 -10.300781 C 2.945312 -10.25 2.523438 -9.722656 2.628906 -9.199219 C 2.679688 -8.671875 3.101562 -8.304688 3.625 -8.304688 C 3.625 -8.304688 3.679688 -8.304688 3.730469 -8.304688 C 4.257812 -8.359375 8.042969 -8.359375 10.566406 -8.304688 C 14.824219 -8.304688 14.824219 -8.304688 15.085938 -8.460938 C 15.609375 -8.671875 15.820312 -9.304688 15.558594 -9.777344 Z M 15.558594 -9.777344 "/></g></g></g><g fill="#000000" fill-opacity="1"><g transform="translate(163.739583, 89.315478)"><g/></g></g><g fill="#000000" fill-opacity="1"><g transform="translate(179.87397, 89.315478)"><g><path d="M 52.035156 12.667969 C 51.511719 12.40625 50.933594 12.613281 50.671875 13.140625 C 50.511719 13.457031 50.355469 13.769531 50.199219 14.035156 C 50.25 10.828125 51.300781 3.46875 52.246094 -2.628906 C 53.667969 -12.511719 55.296875 -23.707031 55.136719 -30.222656 C 54.980469 -36.847656 52.617188 -38.527344 50.671875 -38.792969 C 42.890625 -39.789062 28.121094 -17.871094 16.292969 19.710938 C 19.867188 1.628906 27.492188 -32.324219 29.960938 -42.46875 C 31.222656 -47.882812 30.960938 -51.089844 29.066406 -52.300781 C 27.386719 -53.351562 24.863281 -52.617188 21.5 -49.988281 C 16.558594 -46.148438 10.460938 -38.792969 5.992188 -31.273438 C 2.945312 -26.125 -1.839844 -16.503906 0.261719 -10.25 C 1.734375 -5.78125 6.148438 -4.785156 9.617188 -4.730469 C 10.195312 -4.730469 10.617188 -5.152344 10.671875 -5.730469 C 10.671875 -6.253906 10.195312 -6.726562 9.671875 -6.726562 C 5.519531 -6.832031 3.101562 -8.148438 2.15625 -10.878906 C -0.789062 -19.710938 12.824219 -40.683594 22.757812 -48.410156 C 25.597656 -50.617188 27.332031 -50.984375 27.964844 -50.566406 C 28.332031 -50.355469 29.433594 -49.09375 27.964844 -42.945312 C 26.703125 -37.738281 22.496094 -19.238281 18.871094 -2.417969 C 16.714844 7.410156 15.085938 15.191406 13.980469 20.867188 C 13.351562 24.125 12.929688 26.648438 12.667969 28.382812 C 12.246094 30.960938 12.140625 32.117188 13.191406 32.429688 C 13.296875 32.484375 13.457031 32.484375 13.5625 32.484375 C 14.402344 32.484375 14.824219 31.328125 15.296875 30.171875 C 15.296875 30.117188 15.296875 30.117188 15.296875 30.066406 C 22.550781 4.363281 30.171875 -11.667969 35.375 -20.605469 C 42.523438 -33.0625 47.9375 -37.109375 50.40625 -36.792969 C 52.667969 -36.53125 53.089844 -32.535156 53.140625 -30.171875 C 53.296875 -23.8125 51.667969 -12.71875 50.199219 -2.945312 C 47.78125 13.929688 47.621094 16.558594 49.304688 17.082031 C 50.511719 17.449219 51.355469 16.242188 52.457031 14.035156 C 52.71875 13.5625 52.511719 12.929688 52.035156 12.667969 Z M 52.035156 12.667969 "/></g></g></g><g fill="#000000" fill-opacity="1"><g transform="translate(238.683028, 89.315478)"><g><path d="M 19.027344 -11.40625 C 18.554688 -11.773438 17.925781 -11.667969 17.609375 -11.25 C 15.402344 -8.410156 11.773438 -6.042969 8.988281 -6.570312 C 9.039062 -6.9375 9.09375 -7.304688 9.09375 -7.675781 C 9.460938 -13.613281 7.621094 -14.824219 6.519531 -15.03125 C 5.257812 -15.296875 3.941406 -14.351562 3.3125 -12.773438 C 3.046875 -12.878906 2.734375 -12.878906 2.46875 -12.667969 C 0.367188 -11.355469 -1.367188 -7.988281 -0.421875 -4.363281 C 0.210938 -2.207031 1.683594 -0.839844 3.625 -0.839844 C 5.464844 -0.839844 7.410156 -2.207031 8.410156 -4.625 C 12.089844 -3.835938 16.503906 -6.570312 19.183594 -9.988281 C 19.554688 -10.460938 19.449219 -11.089844 19.027344 -11.40625 Z M 3.679688 -2.839844 C 3.625 -2.839844 3.625 -2.839844 3.625 -2.839844 C 2.3125 -2.890625 1.734375 -4.152344 1.578125 -4.886719 C 1.050781 -6.675781 1.472656 -9.144531 2.945312 -10.511719 C 3.046875 -8.726562 4.046875 -6.78125 6.570312 -5.414062 C 5.835938 -3.730469 4.574219 -2.839844 3.679688 -2.839844 Z M 7.097656 -7.777344 C 7.042969 -7.675781 7.042969 -7.570312 7.042969 -7.464844 C 5.046875 -8.777344 4.730469 -10.460938 5.097656 -11.773438 C 5.363281 -12.613281 5.886719 -13.035156 6.148438 -13.035156 C 6.414062 -12.984375 7.304688 -11.984375 7.097656 -7.777344 Z M 7.097656 -7.777344 "/></g></g></g><g fill="#000000" fill-opacity="1"><g transform="translate(255.50062, 89.315478)"><g><path d="M 44.363281 -31.011719 C 43.679688 -31.957031 40.632812 -32.535156 7.988281 -31.800781 C 9.039062 -36.058594 9.988281 -39.894531 10.828125 -42.996094 C 10.984375 -43.574219 10.671875 -44.101562 10.144531 -44.257812 C 9.617188 -44.414062 9.039062 -44.101562 8.882812 -43.574219 C 7.988281 -40.261719 6.992188 -36.269531 5.886719 -31.746094 C 2.996094 -31.695312 -0.15625 -31.644531 -3.574219 -31.539062 C -8.253906 -31.433594 -11.933594 -31.328125 -13.351562 -31.328125 C -13.929688 -31.328125 -14.402344 -30.855469 -14.402344 -30.328125 C -14.402344 -29.75 -13.929688 -29.277344 -13.351562 -29.277344 C -11.878906 -29.328125 -8.199219 -29.382812 -3.523438 -29.539062 C -1.050781 -29.59375 1.996094 -29.644531 5.414062 -29.75 C 3.152344 -20.183594 0.578125 -8.726562 -1.734375 2.46875 C -3.417969 10.671875 -4.785156 17.765625 -5.675781 22.96875 C -6.148438 25.703125 -6.464844 27.859375 -6.621094 29.328125 C -6.832031 31.328125 -6.9375 32.484375 -5.941406 32.851562 C -5.78125 32.851562 -5.675781 32.902344 -5.519531 32.902344 C -4.625 32.902344 -4.152344 31.644531 -3.730469 30.488281 C -3.523438 29.960938 -3.785156 29.382812 -4.308594 29.171875 C -4.414062 29.171875 -4.46875 29.121094 -4.574219 29.121094 C -4.046875 25.019531 -2.46875 15.820312 0.578125 1.3125 C 2.839844 -9.671875 5.308594 -20.65625 7.515625 -29.804688 C 21.972656 -30.117188 40.734375 -30.382812 42.890625 -29.644531 C 43.257812 -29.328125 43.730469 -29.328125 44.152344 -29.59375 C 44.574219 -29.90625 44.679688 -30.539062 44.363281 -31.011719 Z M 44.363281 -31.011719 "/></g></g></g><g fill="#000000" fill-opacity="1"><g transform="translate(262.490449, 89.315478)"><g><path d="M 12.5625 -27.28125 C 10.828125 -28.277344 8.199219 -26.859375 4.203125 -22.707031 C 3.785156 -22.339844 3.785156 -21.65625 4.203125 -21.289062 C 4.625 -20.921875 5.257812 -20.921875 5.625 -21.289062 C 10.25 -26.070312 11.511719 -25.546875 11.511719 -25.546875 C 11.667969 -25.441406 12.195312 -24.335938 11.144531 -20.972656 C 10.039062 -17.242188 7.621094 -12.300781 5.519531 -7.9375 C 3.152344 -3.101562 1.839844 -0.261719 1.734375 1.207031 C 1.683594 1.789062 2.101562 2.261719 2.679688 2.3125 C 2.679688 2.3125 2.734375 2.3125 2.734375 2.3125 C 3.257812 2.3125 3.730469 1.890625 3.730469 1.367188 C 3.835938 0.210938 5.625 -3.46875 7.359375 -7.097656 C 9.515625 -11.511719 11.933594 -16.503906 13.089844 -20.394531 C 13.875 -22.917969 14.402344 -26.175781 12.5625 -27.28125 Z M 1.472656 4.992188 C 0.472656 5.308594 -0.105469 6.9375 1.207031 7.042969 C 3.523438 7.199219 3.3125 4.363281 1.472656 4.992188 Z M 1.472656 4.992188 "/></g></g></g></svg>